<?xml version="1.0" standalone="no"?>
<!DOCTYPE svg PUBLIC "-//W3C//DTD SVG 20010904//EN"
 "http://www.w3.org/TR/2001/REC-SVG-20010904/DTD/svg10.dtd">
<svg version="1.0" xmlns="http://www.w3.org/2000/svg"
 width="300.000000pt" height="300.000000pt" viewBox="0 0 300.000000 300.000000"
 preserveAspectRatio="xMidYMid meet">
<metadata>
Created by potrace 1.11, written by Peter Selinger 2001-2013
</metadata>
<g transform="translate(0.000000,300.000000) scale(0.100000,-0.100000)"
fill="#000000" stroke="none">
<path d="M1205 2658 c-9 -32 -12 -69 -4 -74 4 -2 6 -11 3 -19 -4 -8 -1 -28 4
-45 14 -38 -1 -39 -28 0 -17 23 -25 28 -42 21 -41 -15 -45 -37 -13 -71 l30
-32 -52 21 c-72 28 -121 33 -132 12 -14 -27 -2 -39 77 -81 42 -22 97 -59 121
-82 42 -40 101 -122 101 -140 0 -4 -14 -15 -30 -23 -26 -14 -30 -21 -27 -48 3
-28 -2 -35 -54 -70 -113 -75 -186 -177 -224 -313 -19 -67 -22 -100 -20 -205 4
-149 20 -245 86 -494 41 -157 47 -185 41 -185 -3 0 -1 -5 6 -12 7 -7 12 -22
12 -34 0 -12 10 -28 23 -37 50 -33 145 -137 152 -166 3 -16 12 -28 18 -26 7 2
29 6 50 8 44 6 53 -17 10 -27 -45 -12 -111 -65 -139 -112 -25 -43 -31 -86 -22
-161 2 -12 -1 -22 -5 -22 -4 0 -28 -22 -53 -48 -46 -50 -94 -137 -94 -172 0
-20 6 -21 86 -21 l86 0 44 48 c29 30 47 42 51 34 2 -7 10 -18 17 -25 7 -7 18
-22 25 -35 l12 -22 297 0 297 0 33 50 c17 27 32 54 32 60 0 13 16 13 43 -1 25
-14 52 -44 72 -81 15 -27 17 -28 109 -28 l93 0 -3 33 c-6 48 -60 152 -100 189
-19 18 -52 42 -72 53 -35 19 -38 23 -31 49 37 136 -105 259 -309 270 -81 4
-92 9 -92 42 0 17 -4 23 -12 18 -7 -4 -4 3 7 16 11 12 72 48 135 78 108 53
133 69 126 82 -2 3 -7 56 -11 119 -4 63 -10 136 -14 163 -5 27 -8 164 -9 306
-1 251 -3 285 -23 367 -5 22 -11 47 -13 56 -11 42 -63 128 -107 174 -54 57
-140 105 -202 112 -24 3 -48 13 -57 24 -8 11 -31 20 -50 22 -34 2 -35 3 -32
42 7 76 30 152 68 218 22 41 72 87 94 87 16 0 12 67 -6 84 -19 20 -28 20 -62
2 -37 -19 -57 -43 -98 -117 l-35 -64 7 50 c4 28 13 65 20 84 20 49 17 70 -11
83 -22 10 -28 8 -44 -9 -23 -24 -51 -102 -51 -141 -1 -46 -17 -4 -25 63 -11
108 -14 115 -51 115 -14 0 -26 -6 -29 -12z m175 -2092 c0 -2 -7 -6 -15 -10 -8
-3 -15 -1 -15 4 0 6 7 10 15 10 8 0 15 -2 15 -4z"/>
</g>
</svg>
